<svg xmlns="http://www.w3.org/2000/svg" width="17" height="21" viewBox="0 0 17 21">
  <g id="Group_19" data-name="Group 19" transform="translate(-21.879 -17.026)">
    <path id="Path_86" data-name="Path 86" d="M77.553,4.862,72.833.421A1.565,1.565,0,0,0,71.754,0H62.526A1.484,1.484,0,0,0,61,1.436V19.564A1.484,1.484,0,0,0,62.526,21H76.474A1.484,1.484,0,0,0,78,19.564V5.877A1.385,1.385,0,0,0,77.553,4.862Zm-1.786.06h-2.78a.212.212,0,0,1-.218-.205V2.1Zm.707,14.848H62.526a.212.212,0,0,1-.218-.205V1.436a.212.212,0,0,1,.218-.205h8.936V4.717a1.484,1.484,0,0,0,1.526,1.436h3.705V19.564A.212.212,0,0,1,76.474,19.77Z" transform="translate(-39.121 17.026)" fill="#939393"/>
    <path id="Path_87" data-name="Path 87" d="M257.75,200.184h4.143a.595.595,0,1,0,0-1.184H257.75a.595.595,0,1,0,0,1.184Z" transform="translate(-227.718 -174.918)" fill="#939393"/>
    <path id="Path_88" data-name="Path 88" d="M257.75,300.184h4.143a.595.595,0,1,0,0-1.184H257.75a.595.595,0,1,0,0,1.184Z" transform="translate(-227.718 -270.41)" fill="#939393"/>
    <path id="Path_89" data-name="Path 89" d="M261.9,399h-4.147a.594.594,0,1,0,0,1.184H261.9a.594.594,0,1,0,0-1.184Z" transform="translate(-227.718 -366.195)" fill="#939393"/>
    <path id="Path_90" data-name="Path 90" d="M131.772,168.948l-1.453,1.452-.343-.342a.63.63,0,1,0-.891.891l.788.788a.63.63,0,0,0,.891,0l1.9-1.9a.63.63,0,0,0-.891-.891Z" transform="translate(-104.618 -146.101)" fill="#939393"/>
    <path id="Path_91" data-name="Path 91" d="M131.772,276.585l-1.453,1.452-.343-.342a.63.63,0,0,0-.891.891l.788.788a.63.63,0,0,0,.891,0l1.9-1.9a.63.63,0,1,0-.891-.891Z" transform="translate(-104.618 -249.333)" fill="#939393"/>
    <path id="Path_92" data-name="Path 92" d="M131.772,376.585l-1.453,1.452-.343-.342a.63.63,0,0,0-.891.891l.788.788a.63.63,0,0,0,.891,0l1.9-1.9a.63.63,0,1,0-.891-.891Z" transform="translate(-104.618 -345.214)" fill="#939393"/>
  </g>
</svg>
